<svg xmlns="http://www.w3.org/2000/svg" width="20.474" height="20.88" viewBox="0 0 20.474 20.88">
  <g id="Icon_akar-home-alt1" data-name="Icon akar-home-alt1" transform="translate(-4.875 -4.246)">
    <path id="Caminho_296" data-name="Caminho 296" d="M24.349,22.073v-6.91a4.105,4.105,0,0,0-1.278-2.976L16.526,5.969a2.053,2.053,0,0,0-2.828,0L7.153,12.186a4.105,4.105,0,0,0-1.278,2.976v6.91a2.053,2.053,0,0,0,2.053,2.053H22.3a2.053,2.053,0,0,0,2.053-2.053Z" fill="none" stroke="#5b8181" stroke-linecap="round" stroke-linejoin="round" stroke-width="2"/>
    <path id="Caminho_297" data-name="Caminho 297" d="M17.625,27.511a2.053,2.053,0,0,1,2.053-2.053H21.73a2.053,2.053,0,0,1,2.053,2.053v6.158H17.625Z" transform="translate(-5.592 -9.544)" fill="none" stroke="#5b8181" stroke-linecap="round" stroke-linejoin="round" stroke-width="2"/>
  </g>
</svg>
